# xmcd CD database file
#
# Track frame offsets:
#	150
#	65780
#	118359
#	162007
#	194783
#	233966
#	246256
#
# Disc length: 3615 seconds
#
# Revision: 0
# Processed by: cddbd v1.5.2PL0 Copyright (c) Steve Scherf et al.
# Submitted via: CDex 1.70beta2
#
DISCID=6b0e1d07
DTITLE=Marek Balata,Art Lande,Gunter Weihinger - Trilogy
DYEAR=1997
DGENRE=Jazz
TTITLE0=01.A Folk Painting (Marek Balata)
TTITLE1=02.Osmogulosis Pleontis (Art Lande [BMI])
TTITLE2=03.Blues For Billy Hart (Marek Balata)
TTITLE3=04.Jumperski (Marek Balata)
TTITLE4=05.Summer Rain (Gunter Weihinger [AKM]
TTITLE5=06.Queit Now (Denny Zeitlin,Patricia Beysens)
TTITLE6=07.Taki Pejzaz (Zygmund Konieczny,Andrzej Szmidt)
EXTD=YEAR: 1997
EXTT0=
EXTT1=
EXTT2=
EXTT3=
EXTT4=
EXTT5=
EXTT6=
PLAYORDER=
